<svg viewBox="0 0 128 128" xmlns="http://www.w3.org/2000/svg">
  <path fill-rule="evenodd" clip-rule="evenodd" fill="#2A4D80" d="M122.301 58.635c-.6-1.299-.89-2.836-.952-4.283-.154-3.561-.023-7.135-.184-10.696-.144-3.189-1.282-6.063-4.344-7.707-2.696-1.447-5.821-1.591-8.821-1.625v5.691c1 .034.754.065.998.078 4.029.198 5.379 1.476 5.43 5.473.038 2.972.012 5.946.06 8.917.059 3.605.597 7.046 3.894 9.322.056.039.051.182.083.348-1.678 1.192-3.006 2.727-3.392 4.822a34.53 34.53 0 00-.54 5.153c-.096 3.118.003 6.243-.086 9.361-.07 2.442-1.227 3.588-3.604 4.132-.895.206-1.843.279-2.843.406v5.677c2-.12 3.017-.199 4.387-.347 5.156-.558 8.059-3.241 8.654-8.243.186-1.568.165-3.166.2-4.75.066-2.969.032-5.952.298-8.903.271-3.011 2.461-4.675 5.461-4.509v-5.951c-2 .358-3.843-.507-4.699-2.366zM28.314 70.768C28.313 59.219 28 47.67 28 36.122v-1.817c-3 0-6.226-.029-9.391.014-1.285.017-2.418.127-3.692.301-4.877.664-7.228 2.953-8.092 7.812-.25 1.402-.2 2.859-.221 4.293-.039 2.726.039 5.453-.005 8.178-.055 3.432-1.672 6.092-5.172 6.294-.124.007.573.15-.427.236v5.305c4 .628 5.273 2.243 5.539 5.959.042.592.053 1.189.059 1.784.034 3.32-.004 6.645.146 9.959.141 3.093.828 5.857 3.751 7.48C13.225 93.436 17 93.559 19 93.638v-5.664c0-.048-.21-.092-.405-.104-4.339-.265-5.317-1.443-5.343-5.785-.017-2.875.106-5.75.06-8.625-.058-3.612-.586-7.038-3.856-9.324-.05-.035-.001-.183-.017-.383 2.199-1.39 3.368-3.516 3.686-6.094.176-1.422.235-2.864.26-4.299.05-2.973-.003-5.949.078-8.92.057-2.088 1.39-3.61 3.091-3.952 1.612-.325 2.446-.315 5.446-.466v2.056c0 10.31-.367 20.619-.313 30.929.019 3.531.41 7.012 4.195 8.537 2.058.829 4.263 1.084 6.627 1.642.395-2.312.524-4.23.847-6.128-4.357-1.25-5.042-1.898-5.042-6.29z"/>
</svg>

