<svg viewBox="0 0 128 128" xmlns="http://www.w3.org/2000/svg">
  <path d="M64.004 25.602c-17.067 0-27.73 8.53-32 25.597 6.398-8.531 13.867-11.73 22.398-9.597 4.871 1.214 8.352 4.746 12.207 8.66C72.883 56.652 81.145 64 96.004 64c17.066 0 27.73-8.531 32-25.602-6.399 8.532-13.867 11.731-22.399 9.598-4.87-1.215-8.351-4.746-12.207-8.66C85.125 34.348 76.863 27 64.004 27zm-32 32c-17.066 0-27.73 8.531-32 25.598C6.4 74.664 13.868 71.465 22.4 73.598c4.871 1.215 8.352 4.746 12.207 8.66 6.275 6.388 14.537 13.742 29.397 13.742 17.065 0 27.73-8.53 32-25.6-6.399 8.53-13.867 11.729-22.399 9.597-4.87-1.214-8.351-4.746-12.207-8.66C53.125 66.348 44.863 59 32.004 59z" fill="#06B6D4"/>
</svg>
